<svg width="24" height="24" viewBox="0 0 24 24" fill="none" xmlns="http://www.w3.org/2000/svg">
<path d="M23.1429 12H9.42859" stroke="#7C859D" stroke-width="1.71429" stroke-linecap="round" stroke-linejoin="round"/>
<path d="M12.8572 8.57129L9.42859 11.9999L12.8572 15.4284" stroke="#7C859D" stroke-width="1.71429" stroke-linecap="round" stroke-linejoin="round"/>
<path d="M21.3943 17.9998C20.0966 20.0306 18.1755 21.5859 15.9191 22.4325C13.6627 23.2791 11.1926 23.3713 8.87933 22.6953C6.56607 22.0194 4.53431 20.6116 3.0888 18.6832C1.64329 16.7549 0.861938 14.4098 0.861938 11.9998C0.861938 9.58978 1.64329 7.24473 3.0888 5.31636C4.53431 3.38798 6.56607 1.98023 8.87933 1.30424C11.1926 0.62826 13.6627 0.720481 15.9191 1.56707C18.1755 2.41367 20.0966 3.969 21.3943 5.99979" stroke="#7C859D" stroke-width="1.71429" stroke-linecap="round" stroke-linejoin="round"/>
</svg>
